<?xml version="1.0" standalone="no"?>
<!DOCTYPE svg PUBLIC "-//W3C//DTD SVG 20010904//EN"
 "http://www.w3.org/TR/2001/REC-SVG-20010904/DTD/svg10.dtd">
<svg version="1.0" xmlns="http://www.w3.org/2000/svg"
 width="512.000000pt" height="512.000000pt" viewBox="0 0 512.000000 512.000000"
 preserveAspectRatio="xMidYMid meet">

<g transform="translate(0.000000,512.000000) scale(0.100000,-0.100000)"
fill="#ffffff" stroke="none">
<path d="M4170 5104 c-36 -8 -101 -21 -145 -29 -50 -9 -110 -29 -160 -54 -44
-22 -312 -192 -595 -378 -283 -186 -593 -390 -687 -452 l-173 -113 -272 108
c-150 59 -284 107 -298 107 -14 0 -50 -16 -81 -36 -52 -33 -68 -56 -69 -96 0
-8 95 -110 212 -227 116 -118 210 -215 207 -217 -2 -2 -20 -14 -39 -27 -47
-31 -60 -49 -60 -80 0 -33 31 -62 64 -62 13 0 228 92 477 204 250 113 455 204
457 203 1 -1 -32 -73 -73 -159 -41 -87 -75 -163 -75 -170 0 -19 34 -46 58 -46
11 0 64 28 116 62 l96 62 246 318 247 317 345 228 c352 232 448 308 477 377
57 135 -67 207 -275 160z"/>
<path d="M1805 3499 c-683 -234 -1215 -674 -1480 -1225 -107 -223 -150 -416
-142 -639 7 -179 36 -298 112 -450 184 -370 563 -614 1080 -696 48 -7 186 -13
341 -14 l262 -1 67 -57 c239 -204 554 -347 880 -398 107 -17 399 -17 505 0
469 73 875 314 1156 686 320 425 430 973 299 1495 -138 553 -564 1022 -1105
1218 -382 139 -818 139 -1200 0 -479 -174 -878 -568 -1050 -1040 -189 -517
-135 -1071 150 -1537 28 -46 49 -85 48 -86 -6 -5 -156 16 -253 36 -512 103
-845 375 -921 753 -23 114 -14 308 20 431 34 124 47 158 105 277 109 223 246
405 485 643 193 193 368 335 614 497 237 157 243 181 27 107z m769 -511 c-76
-134 -122 -247 -174 -426 l-36 -124 -154 -52 c-85 -28 -200 -75 -254 -104 -55
-29 -101 -50 -103 -48 -7 7 55 148 100 226 91 161 258 346 408 452 61 44 225
137 241 138 4 0 -8 -28 -28 -62z m1249 31 c271 -137 524 -404 647 -686 23 -52
40 -96 38 -98 -2 -2 -56 22 -120 54 -64 32 -179 79 -254 103 l-138 45 -37 124
c-48 166 -79 243 -149 377 -33 61 -57 112 -54 112 2 0 33 -14 67 -31z m-568 7
c47 -20 129 -98 178 -170 59 -88 167 -329 153 -343 -2 -3 -94 1 -205 7 -155
10 -247 10 -402 0 -111 -6 -203 -9 -205 -7 -9 8 49 154 99 250 55 107 136 204
206 249 51 32 119 37 176 14z m288 -858 c109 -11 120 -14 128 -35 20 -52 31
-372 19 -546 -6 -95 -13 -181 -16 -193 -5 -18 -18 -23 -97 -33 -162 -22 -551
-26 -727 -7 -85 10 -156 19 -158 21 -7 7 -21 144 -28 280 -7 143 10 455 27
486 8 15 117 30 329 43 92 6 397 -3 523 -16z m-1246 -259 c-5 -83 -5 -216 0
-295 6 -117 6 -144 -5 -144 -7 0 -48 14 -90 32 -156 64 -289 164 -312 233 -9
28 -8 41 6 70 20 43 89 105 169 152 56 33 208 101 230 102 7 1 7 -50 2 -150z
m1823 130 c162 -61 303 -157 341 -231 28 -55 14 -92 -62 -163 -63 -57 -248
-158 -318 -171 -32 -7 -33 -6 -26 17 10 30 10 494 1 537 -9 38 -7 38 64 11z
m-1970 -881 c41 -14 107 -36 146 -47 l71 -21 13 -57 c31 -141 131 -392 200
-505 17 -26 30 -51 30 -53 0 -3 -33 11 -72 31 -248 125 -463 335 -601 587 -35
65 -87 182 -87 198 0 4 51 -19 113 -50 61 -31 146 -69 187 -83z m2307 8 c-120
-251 -287 -443 -512 -588 -75 -49 -195 -112 -195 -103 0 3 12 24 27 48 66 105
160 339 197 493 l18 72 145 47 c80 26 195 73 257 104 61 31 112 53 114 49 2
-4 -21 -59 -51 -122z m-1367 -162 c157 -4 289 -2 369 5 68 6 126 9 129 7 7 -8
-43 -138 -90 -232 -86 -172 -204 -290 -300 -301 -90 -10 -182 55 -276 195 -52
79 -130 244 -148 316 -7 28 -7 28 32 22 21 -3 149 -9 284 -12z"/>
</g>
</svg>
